<?xml version="1.0" encoding="UTF-8" standalone="no"?>
<!-- Generator: Adobe Illustrator 22.1.0, SVG Export Plug-In . SVG Version: 6.00 Build 0)  -->

<svg
   xmlns:dc="http://purl.org/dc/elements/1.1/"
   xmlns:cc="http://creativecommons.org/ns#"
   xmlns:rdf="http://www.w3.org/1999/02/22-rdf-syntax-ns#"
   xmlns:svg="http://www.w3.org/2000/svg"
   xmlns="http://www.w3.org/2000/svg"
   xmlns:sodipodi="http://sodipodi.sourceforge.net/DTD/sodipodi-0.dtd"
   xmlns:inkscape="http://www.inkscape.org/namespaces/inkscape"
   version="1.1"
   id="svg413"
   inkscape:export-filename="/home/user/Desktop/Steer Campaign Branding/logo-color.png"
   inkscape:export-xdpi="96"
   inkscape:export-ydpi="96"
   inkscape:version="0.92.5 (2060ec1f9f, 2020-04-08)"
   sodipodi:docname="logo-1.svg"
   x="0px"
   y="0px"
   viewBox="0 0 399.98239 366.08148"
   xml:space="preserve"
   width="399.98239"
   height="366.08148"><metadata
   id="metadata4062"><rdf:RDF><cc:Work
       rdf:about=""><dc:format>image/svg+xml</dc:format><dc:type
         rdf:resource="http://purl.org/dc/dcmitype/StillImage" /><dc:title></dc:title></cc:Work></rdf:RDF></metadata><defs
   id="defs4060" />
<style
   type="text/css"
   id="style3980">
	.st0{enable-background:new    ;}
	.st1{fill:#4170BD;}
</style>
<sodipodi:namedview
   bordercolor="#666666"
   borderopacity="1.0"
   id="namedview415"
   inkscape:current-layer="layer4"
   inkscape:cx="269.42432"
   inkscape:cy="101.84244"
   inkscape:document-units="px"
   inkscape:pagecheckerboard="0"
   inkscape:pageopacity="1"
   inkscape:pageshadow="2"
   inkscape:window-height="713"
   inkscape:window-maximized="1"
   inkscape:window-width="1296"
   inkscape:window-x="70"
   inkscape:window-y="25"
   inkscape:zoom="0.5"
   pagecolor="#f3f6fe"
   showgrid="false"
   units="px"
   width="350px">
	</sodipodi:namedview>


<g
   id="layer4"
   inkscape:groupmode="layer"
   inkscape:label="Icon"
   transform="translate(-365.57568,-192.76097)">
	<g
   id="g682"
   transform="matrix(0.48429881,0,0,0.48429881,278.88619,27.66351)">
		<path
   id="path674"
   class="st1"
   d="m 400.2,582.8 c 33.4,0 60.5,-27.1 60.5,-60.5 0,-33.4 -27.1,-60.5 -60.5,-60.5 -33.4,0 -60.5,27.1 -60.5,60.5 0,33.4 27.1,60.5 60.5,60.5 z m 0,-90.7 c 16.7,0 30.2,13.6 30.2,30.2 0,16.7 -13.6,30.2 -30.2,30.2 -16.6,0 -30.2,-13.6 -30.2,-30.2 -0.1,-16.6 13.5,-30.2 30.2,-30.2 z"
   inkscape:connector-curvature="0"
   style="fill:#4170bd" />
		<path
   id="path676"
   class="st1"
   d="m 468.2,395.9 c 9.5,0 17.1,-7.7 17.1,-17.1 0,-9.5 -7.7,-17.1 -17.1,-17.1 -9.5,0 -17.1,7.7 -17.1,17.1 0,9.4 7.7,17.1 17.1,17.1 z"
   inkscape:connector-curvature="0"
   style="fill:#4170bd" />
		<path
   id="path678"
   class="st1"
   d="m 196.1,588.4 c -9.5,0 -17.1,7.7 -17.1,17.1 0,9.5 7.7,17.1 17.1,17.1 9.4,0 17.1,-7.7 17.1,-17.1 0,-9.5 -7.7,-17.1 -17.1,-17.1 z"
   inkscape:connector-curvature="0"
   style="fill:#4170bd" />
		<path
   id="path680"
   class="st1"
   d="M 989.8,340.9 H 790.5 c -98.5,0 -178.7,80.2 -178.7,178.7 V 703.7 H 427.7 C 329.2,703.7 249,783.9 249,882.4 v 199.3 c 0,8.4 6.8,15.1 15.1,15.1 h 199.3 c 98.5,0 178.7,-80.2 178.7,-178.7 V 734 h 184.1 c 98.5,0 178.7,-80.2 178.7,-178.7 V 356.1 c 0,-8.4 -6.8,-15.2 -15.1,-15.2 z m -378,577.2 c 0,81.9 -66.6,148.5 -148.5,148.5 H 279.2 V 882.5 C 279.2,800.6 345.8,734 427.7,734 H 611.8 Z M 974.7,555.3 c 0,81.9 -66.6,148.5 -148.5,148.5 H 642.1 V 519.6 c 0,-81.9 66.6,-148.5 148.5,-148.5 h 184.1 z"
   inkscape:connector-curvature="0"
   style="fill:#4170bd" />
	</g>
</g>

</svg>