<?xml version="1.0" encoding="UTF-8" standalone="no"?>
<!-- Generator: Adobe Illustrator 22.1.0, SVG Export Plug-In . SVG Version: 6.00 Build 0)  -->

<svg
   version="1.1"
   id="svg413"
   x="0px"
   y="0px"
   viewBox="0 0 350 75"
   style="enable-background:new 0 0 350 75;"
   xml:space="preserve"
   sodipodi:docname="logo-dark-350x75.svg"
   inkscape:version="1.1 (1:1.1+202105261517+ce6663b3b7)"
   xmlns:inkscape="http://www.inkscape.org/namespaces/inkscape"
   xmlns:sodipodi="http://sodipodi.sourceforge.net/DTD/sodipodi-0.dtd"
   xmlns="http://www.w3.org/2000/svg"
   xmlns:svg="http://www.w3.org/2000/svg"><defs
   id="defs1646" /><sodipodi:namedview
   id="namedview1644"
   pagecolor="#ffffff"
   bordercolor="#666666"
   borderopacity="1.0"
   inkscape:pageshadow="2"
   inkscape:pageopacity="0.0"
   inkscape:pagecheckerboard="0"
   showgrid="false"
   inkscape:zoom="2.1285714"
   inkscape:cx="175"
   inkscape:cy="37.348993"
   inkscape:window-width="1528"
   inkscape:window-height="836"
   inkscape:window-x="72"
   inkscape:window-y="27"
   inkscape:window-maximized="1"
   inkscape:current-layer="svg413" />
<style
   type="text/css"
   id="style1565">
	.st0{enable-background:new    ;}
	.st1{fill:#4170BD;}
</style>
<g
   id="layer1">
</g>
<g
   id="layer2"
   style="fill:#000000">
	<g
   class="st0"
   id="g1606"
   style="fill:#000000">
		<path
   class="st1"
   d="M93,49.1h3.2V65h-2.1V51.3h0L88.5,65h-2.1l-5.6-13.7h0V65h-2.1V49.1h3.2l5.5,13.6h0L93,49.1z"
   id="path1568"
   style="fill:#000000" />
		<path
   class="st1"
   d="M100.4,54.1c1.3-0.6,2.7-0.9,4.2-0.9s2.7,0.4,3.5,1.3c0.8,0.9,1.2,1.9,1.2,3.2V65h-1.8l-0.3-1.5h-0.1    c-1.1,1.1-2.5,1.7-4.2,1.7c-1,0-1.9-0.3-2.6-0.9c-0.7-0.6-1.1-1.5-1.1-2.5c0-1.1,0.4-1.9,1.3-2.6c0.9-0.7,2.2-1,3.9-1h2.8V58    c0-1-0.2-1.7-0.7-2.2c-0.5-0.4-1.3-0.7-2.6-0.7c-1.2,0-2.4,0.3-3.4,0.8h-0.1V54.1z M107.3,61.7v-1.9h-2.5c-2.3,0-3.4,0.6-3.4,1.8    s0.8,1.8,2.4,1.8c0.7,0,1.3-0.2,1.9-0.5C106.3,62.6,106.8,62.2,107.3,61.7z"
   id="path1570"
   style="fill:#000000" />
		<path
   class="st1"
   d="M119.2,53.2h0.2v2h-0.2c-0.9,0-1.7,0.2-2.5,0.5s-1.4,0.8-1.8,1.5V65h-2.1V53.4h1.8l0.3,1.5v0.3h0    C116.1,53.9,117.5,53.2,119.2,53.2z"
   id="path1572"
   style="fill:#000000" />
		<path
   class="st1"
   d="M126.9,58.1l5.2,6.9h-2.5l-4.1-5.5h-0.1l-1.7,1.7V65h-2.1V48.4h2.1v10.2h0.1l5-5.2h2.8L126.9,58.1z"
   id="path1574"
   style="fill:#000000" />
		<path
   class="st1"
   d="M144.3,59.2V60h-8.8c0.1,1.1,0.5,1.9,1.2,2.5c0.7,0.6,1.7,0.9,3,0.9c1.4,0,2.6-0.4,3.8-1.1h0.1v2    c-1.3,0.7-2.8,1.1-4.5,1.1c-1.7,0-3.1-0.5-4.1-1.6c-1-1.1-1.6-2.5-1.6-4.3s0.5-3.3,1.4-4.4c0.9-1.2,2.3-1.8,4-1.8    c1.8,0,3.1,0.6,4,1.8C143.8,56.1,144.3,57.5,144.3,59.2z M135.5,58.3h6.7c-0.1-1.1-0.4-1.9-1.1-2.5c-0.7-0.6-1.4-0.8-2.3-0.8    s-1.6,0.3-2.3,0.8C135.9,56.4,135.5,57.2,135.5,58.3z"
   id="path1576"
   style="fill:#000000" />
		<path
   class="st1"
   d="M153.1,55.2h-3.3v6.9c0,0.6,0.2,1,0.5,1.2c0.3,0.1,0.7,0.2,1.1,0.2c0.5,0,1-0.1,1.5-0.4h0.2v1.7    c-0.6,0.3-1.3,0.5-2,0.5c-2.2,0-3.3-1-3.3-3v-7.1h-2.2v-0.1l4.2-4.1v2.5h3.3V55.2z"
   id="path1578"
   style="fill:#000000" />
		<path
   class="st1"
   d="M158,48.7V51h-2.2v-2.2H158z M155.9,65V53.4h2.1V65H155.9z"
   id="path1580"
   style="fill:#000000" />
		<path
   class="st1"
   d="M167.9,53.2c1.3,0,2.3,0.4,3,1.3c0.7,0.8,1.1,1.9,1.1,3.2V65h-2.1v-7.1c0-1.8-0.8-2.8-2.5-2.8    c-1.3,0-2.6,0.7-3.7,2.2V65h-2.1V53.4h1.8l0.3,1.5v0.3h0C165,53.9,166.3,53.2,167.9,53.2z"
   id="path1582"
   style="fill:#000000" />
		<path
   class="st1"
   d="M184.4,53.4h1.8v11.1c0,1.9-0.5,3.4-1.4,4.4c-0.9,1-2.3,1.5-4,1.5c-1.8,0-3.3-0.4-4.8-1.2v-2h0.1    c1.3,0.8,2.8,1.3,4.5,1.3c2.3,0,3.5-1.2,3.5-3.7v-1.5h-0.1c-1,1.1-2.3,1.7-3.8,1.7s-2.7-0.5-3.9-1.6c-1.1-1-1.7-2.5-1.7-4.4    c0-1.9,0.6-3.3,1.7-4.4c1.1-1,2.4-1.6,3.9-1.6s2.7,0.6,3.8,1.7h0.1L184.4,53.4z M184.1,61.5v-4.7c-1.1-1.1-2.2-1.7-3.4-1.7    c-1.2,0-2.1,0.3-2.8,1c-0.7,0.7-1.1,1.7-1.1,3c0,1.3,0.4,2.3,1.1,3c0.7,0.7,1.7,1,2.8,1C181.9,63.1,183.1,62.6,184.1,61.5z"
   id="path1584"
   style="fill:#000000" />
		<path
   class="st1"
   d="M207.4,65l-1.7-4.1H198l-1.7,4.1H194l6.7-15.9h2.2l6.7,15.9H207.4z M198.8,59v0.1h6.1V59l-3-7.3h0L198.8,59z"
   id="path1586"
   style="fill:#000000" />
		<path
   class="st1"
   d="M215.6,65.3c-1.3,0-2.3-0.4-3-1.3c-0.7-0.8-1.1-1.9-1.1-3.2v-7.4h2.1v7.1c0,1.9,0.8,2.8,2.5,2.8    c1.3,0,2.6-0.7,3.7-2.2v-7.7h2.1V65H220l-0.3-1.5v-0.3h0C218.5,64.6,217.1,65.3,215.6,65.3z"
   id="path1588"
   style="fill:#000000" />
		<path
   class="st1"
   d="M231.6,55.2h-3.3v6.9c0,0.6,0.2,1,0.5,1.2c0.3,0.1,0.7,0.2,1.1,0.2s1-0.1,1.5-0.4h0.2v1.7    c-0.6,0.3-1.3,0.5-2,0.5c-2.2,0-3.3-1-3.3-3v-7.1H224v-0.1l4.2-4.1v2.5h3.3V55.2z"
   id="path1590"
   style="fill:#000000" />
		<path
   class="st1"
   d="M233.5,59.2c0-1.8,0.5-3.3,1.6-4.4c1.1-1.1,2.5-1.7,4.2-1.7c1.8,0,3.2,0.6,4.2,1.7c1.1,1.1,1.6,2.6,1.6,4.4    s-0.5,3.3-1.6,4.4c-1.1,1.1-2.5,1.7-4.2,1.7c-1.8,0-3.2-0.6-4.2-1.7C234,62.5,233.5,61,233.5,59.2z M236.7,62.3    c0.8,0.7,1.6,1,2.6,1s1.9-0.3,2.6-1c0.8-0.7,1.1-1.7,1.1-3.1c0-1.4-0.4-2.4-1.1-3.1c-0.8-0.7-1.6-1-2.6-1s-1.9,0.3-2.6,1    c-0.8,0.7-1.1,1.7-1.1,3.1C235.5,60.6,235.9,61.6,236.7,62.3z"
   id="path1592"
   style="fill:#000000" />
		<path
   class="st1"
   d="M261.6,53.2c1.2,0,2.2,0.4,2.8,1.3c0.6,0.9,1,1.9,1,3V65h-2.1V58c0-1-0.2-1.7-0.5-2.2s-1-0.7-1.8-0.7    c-1.3,0-2.4,0.7-3.3,2.2V65h-2.1V58c0-1-0.2-1.7-0.5-2.2s-0.9-0.7-1.8-0.7c-1.3,0-2.4,0.7-3.3,2.2V65H248V53.4h1.8l0.3,1.5v0.3h0    c1-1.3,2.2-2,3.8-2c0.8,0,1.6,0.2,2.2,0.7c0.6,0.4,1,1,1.3,1.6h0.1C258.4,54,259.8,53.2,261.6,53.2z"
   id="path1594"
   style="fill:#000000" />
		<path
   class="st1"
   d="M269.1,54.1c1.3-0.6,2.7-0.9,4.2-0.9s2.7,0.4,3.5,1.3c0.8,0.9,1.2,1.9,1.2,3.2V65h-1.8l-0.3-1.5h-0.1    c-1.1,1.1-2.5,1.7-4.2,1.7c-1,0-1.9-0.3-2.6-0.9c-0.7-0.6-1.1-1.5-1.1-2.5c0-1.1,0.4-1.9,1.3-2.6c0.9-0.7,2.2-1,3.9-1h2.8V58    c0-1-0.2-1.7-0.7-2.2c-0.5-0.4-1.3-0.7-2.6-0.7c-1.2,0-2.4,0.3-3.4,0.8h-0.1V54.1z M276,61.7v-1.9h-2.5c-2.3,0-3.4,0.6-3.4,1.8    s0.8,1.8,2.4,1.8c0.7,0,1.3-0.2,1.9-0.5C275,62.6,275.5,62.2,276,61.7z"
   id="path1596"
   style="fill:#000000" />
		<path
   class="st1"
   d="M287.7,55.2h-3.3v6.9c0,0.6,0.2,1,0.5,1.2c0.3,0.1,0.7,0.2,1.1,0.2s1-0.1,1.5-0.4h0.2v1.7    c-0.6,0.3-1.3,0.5-2,0.5c-2.2,0-3.3-1-3.3-3v-7.1h-2.2v-0.1l4.2-4.1v2.5h3.3V55.2z"
   id="path1598"
   style="fill:#000000" />
		<path
   class="st1"
   d="M292.5,48.7V51h-2.2v-2.2H292.5z M290.4,65V53.4h2.1V65H290.4z"
   id="path1600"
   style="fill:#000000" />
		<path
   class="st1"
   d="M295.4,59.2c0-1.8,0.5-3.3,1.6-4.4c1.1-1.1,2.5-1.7,4.2-1.7c1.8,0,3.2,0.6,4.2,1.7c1.1,1.1,1.6,2.6,1.6,4.4    s-0.5,3.3-1.6,4.4c-1.1,1.1-2.5,1.7-4.2,1.7c-1.8,0-3.2-0.6-4.2-1.7C295.9,62.5,295.4,61,295.4,59.2z M298.6,62.3    c0.8,0.7,1.6,1,2.6,1s1.9-0.3,2.6-1c0.8-0.7,1.1-1.7,1.1-3.1c0-1.4-0.4-2.4-1.1-3.1c-0.8-0.7-1.6-1-2.6-1s-1.9,0.3-2.6,1    c-0.8,0.7-1.1,1.7-1.1,3.1C297.5,60.6,297.9,61.6,298.6,62.3z"
   id="path1602"
   style="fill:#000000" />
		<path
   class="st1"
   d="M316.2,53.2c1.3,0,2.3,0.4,3,1.3c0.7,0.8,1.1,1.9,1.1,3.2V65h-2.1v-7.1c0-1.8-0.8-2.8-2.5-2.8    c-1.3,0-2.6,0.7-3.7,2.2V65h-2.1V53.4h1.8l0.3,1.5v0.3h0C313.3,53.9,314.7,53.2,316.2,53.2z"
   id="path1604"
   style="fill:#000000" />
	</g>
</g>
<g
   id="layer4"
   style="fill:#000000">
	<g
   id="g682"
   transform="matrix(0.08579556,0,0,0.08579556,-2.1720512,-2.9668613)"
   style="fill:#000000">
		<path
   id="path674"
   class="st1"
   d="M523.9,356.2c29.2,0,52.9-23.7,52.9-52.9s-23.7-52.9-52.9-52.9S471,274.2,471,303.3    S494.7,356.2,523.9,356.2z M523.9,276.9c14.6,0,26.5,11.9,26.5,26.5s-11.9,26.5-26.5,26.5c-14.6,0-26.5-11.9-26.5-26.5    S509.3,276.9,523.9,276.9z"
   style="fill:#000000" />
		<path
   id="path676"
   class="st1"
   d="M583.4,192.7c8.3,0,15-6.7,15-15c0-8.3-6.7-15-15-15c-8.3,0-15,6.7-15,15    C568.4,186,575.1,192.7,583.4,192.7z"
   style="fill:#000000" />
		<path
   id="path678"
   class="st1"
   d="M345.3,361.1c-8.3,0-15,6.7-15,15c0,8.3,6.7,15,15,15c8.3,0,15-6.7,15-15    C360.3,367.8,353.6,361.1,345.3,361.1z"
   style="fill:#000000" />
		<path
   id="path680"
   class="st1"
   d="M1039.7,144.6H865.4C779.2,144.6,709,214.8,709,301V462H547.9c-86.2,0-156.3,70.1-156.3,156.3    v174.3c0,7.3,5.9,13.2,13.2,13.2h174.3c86.2,0,156.3-70.1,156.3-156.3V488.5h161.1c86.2,0,156.3-70.1,156.3-156.3V157.9    C1052.9,150.5,1047,144.6,1039.7,144.6z M709,649.6c0,71.6-58.3,129.9-129.9,129.9H418.1V618.4c0-71.6,58.3-129.9,129.9-129.9H709    V649.6z M1026.4,332.2c0,71.6-58.3,129.9-129.9,129.9H735.5V301c0-71.6,58.3-129.9,129.9-129.9h161.1V332.2z"
   style="fill:#000000" />
	</g>
</g>
<g
   class="st0"
   id="g1641">
	<path
   class="st1"
   d="M101.2,24c0,0.7,0.3,1.3,0.9,1.8c0.6,0.5,1.3,0.8,2.2,1.1c0.9,0.3,1.8,0.5,2.8,0.8c1,0.3,2,0.6,2.9,0.9   c0.9,0.3,1.6,0.8,2.2,1.6c0.6,0.8,0.9,1.8,0.9,3c0,1.6-0.7,2.9-2,3.9c-1.3,1-3.1,1.5-5.5,1.5S101,38,98.9,37v-2.5H99   c1.9,1.1,4.2,1.6,6.6,1.6c3.3,0,4.9-1.1,4.9-3.2c0-1.1-0.8-1.8-2.4-2.3c-0.7-0.2-1.4-0.4-2.3-0.7c-0.8-0.2-1.7-0.5-2.5-0.8   c-0.9-0.3-1.6-0.6-2.3-1c-0.7-0.4-1.3-0.9-1.7-1.6c-0.4-0.7-0.7-1.5-0.7-2.4c0-1.6,0.6-3,1.9-4.1s3-1.7,5.2-1.7   c2.2,0,4.1,0.3,5.9,1v2.4h-0.2c-1.8-0.7-3.4-1.1-5.1-1.1c-1.6,0-2.9,0.3-3.8,0.9C101.7,22.2,101.2,22.9,101.2,24z"
   id="path1615"
   style="fill:#000000" />
	<path
   class="st1"
   d="M124,26.1H120v8.5c0,0.8,0.2,1.3,0.6,1.5c0.4,0.1,0.8,0.2,1.4,0.2c0.6,0,1.2-0.1,1.8-0.4h0.2v2.1   c-0.8,0.4-1.6,0.6-2.5,0.6c-2.7,0-4.1-1.2-4.1-3.7v-8.7h-2.7V26l5.2-5.1V24h4.1V26.1z"
   id="path1617"
   style="fill:#000000" />
	<path
   class="st1"
   d="M139.8,31.1V32H129c0.1,1.3,0.6,2.3,1.5,3.1c0.8,0.7,2.1,1.1,3.7,1.1c1.7,0,3.2-0.5,4.6-1.4h0.1v2.5   c-1.6,0.9-3.4,1.3-5.5,1.3s-3.8-0.6-5.1-1.9c-1.3-1.3-1.9-3.1-1.9-5.3s0.6-4,1.7-5.5s2.8-2.2,5-2.2s3.8,0.7,5,2.2   C139.2,27.3,139.8,29,139.8,31.1z M129,29.9h8.3c-0.1-1.3-0.5-2.4-1.4-3.1s-1.8-1-2.8-1s-2,0.3-2.8,1S129.1,28.6,129,29.9z"
   id="path1619"
   style="fill:#000000" />
	<path
   class="st1"
   d="M155.8,31.1V32H145c0.1,1.3,0.6,2.3,1.5,3.1c0.8,0.7,2.1,1.1,3.7,1.1c1.7,0,3.2-0.5,4.6-1.4h0.1v2.5   c-1.6,0.9-3.4,1.3-5.5,1.3s-3.8-0.6-5.1-1.9c-1.3-1.3-1.9-3.1-1.9-5.3s0.6-4,1.7-5.5s2.8-2.2,5-2.2s3.8,0.7,5,2.2   C155.2,27.3,155.8,29,155.8,31.1z M145,29.9h8.3c-0.1-1.3-0.5-2.4-1.4-3.1s-1.8-1-2.8-1s-2,0.3-2.8,1S145,28.6,145,29.9z"
   id="path1621"
   style="fill:#000000" />
	<path
   class="st1"
   d="M167,23.7h0.2v2.4H167c-1.1,0-2.1,0.2-3.1,0.6c-1,0.4-1.7,1-2.2,1.8v9.7h-2.5V24h2.2l0.3,1.8v0.4h0.1   C163.1,24.5,164.9,23.7,167,23.7z"
   id="path1623"
   style="fill:#000000" />
	<path
   class="st1"
   d="M192.9,22.8c-1.9-1.3-4-1.9-6.4-1.9c-2.3,0-4.1,0.7-5.4,2.1c-1.3,1.4-2,3.2-2,5.5c0,2.2,0.7,4.1,2,5.5   s3.1,2.1,5.4,2.1c2.3,0,4.4-0.6,6.4-1.9h0.1v2.5c-2,1.2-4.2,1.8-6.6,1.8c-2.9,0-5.2-0.9-7-2.7c-1.8-1.8-2.8-4.3-2.8-7.3   c0-3.1,0.9-5.5,2.8-7.3c1.8-1.8,4.2-2.7,7-2.7c2.4,0,4.6,0.6,6.6,1.8v2.5H192.9z"
   id="path1625"
   style="fill:#000000" />
	<path
   class="st1"
   d="M197.1,24.7c1.6-0.7,3.4-1.1,5.2-1.1c1.9,0,3.3,0.5,4.3,1.6s1.5,2.4,1.5,3.9v9h-2.2l-0.3-1.8h-0.1   c-1.3,1.4-3.1,2.1-5.2,2.1c-1.3,0-2.3-0.4-3.2-1.1c-0.9-0.8-1.3-1.8-1.3-3.1s0.5-2.4,1.6-3.2s2.7-1.2,4.8-1.2h3.4v-0.2   c0-1.2-0.3-2.1-0.9-2.7c-0.6-0.5-1.7-0.8-3.1-0.8s-2.9,0.3-4.2,1h-0.2V24.7z M205.5,34.2v-2.4h-3.1c-2.8,0-4.2,0.7-4.2,2.2   c0,1.5,1,2.2,3,2.2c0.8,0,1.6-0.2,2.4-0.6C204.3,35.3,205,34.8,205.5,34.2z"
   id="path1627"
   style="fill:#000000" />
	<path
   class="st1"
   d="M229.1,23.7c1.5,0,2.7,0.5,3.5,1.6s1.2,2.3,1.2,3.8v9.2h-2.5v-8.7c0-1.2-0.2-2.1-0.7-2.7s-1.2-0.9-2.2-0.9   c-1.6,0-2.9,0.9-4,2.7v9.5h-2.5v-8.7c0-1.2-0.2-2.1-0.6-2.7c-0.4-0.6-1.2-0.9-2.2-0.9c-1.6,0-2.9,0.9-4,2.7v9.5h-2.5V24h2.2   l0.3,1.8v0.4h0.1c1.2-1.7,2.8-2.5,4.7-2.5c1,0,1.9,0.3,2.7,0.8c0.7,0.5,1.3,1.2,1.6,2h0.1C225.1,24.6,226.8,23.7,229.1,23.7z"
   id="path1629"
   style="fill:#000000" />
	<path
   class="st1"
   d="M250.2,36.5c-1.4,1.3-2.9,2-4.7,2c-1.8,0-3.4-0.7-4.7-2.1h-0.1v8.2h-2.5V24h2.2l0.3,1.8h0.1   c1.3-1.4,2.9-2.1,4.7-2.1c1.8,0,3.4,0.7,4.7,2c1.4,1.3,2,3.1,2,5.4C252.2,33.4,251.5,35.2,250.2,36.5z M245.1,26.1   c-1.7,0-3.2,0.7-4.4,2.1V34c1.3,1.4,2.7,2.1,4.4,2.1c1.4,0,2.5-0.4,3.3-1.3c0.8-0.9,1.3-2.1,1.3-3.7s-0.4-2.8-1.3-3.7   C247.5,26.5,246.4,26.1,245.1,26.1z"
   id="path1631"
   style="fill:#000000" />
	<path
   class="st1"
   d="M256,24.7c1.6-0.7,3.4-1.1,5.2-1.1c1.9,0,3.3,0.5,4.3,1.6s1.5,2.4,1.5,3.9v9h-2.2l-0.3-1.8h-0.1   c-1.3,1.4-3.1,2.1-5.2,2.1c-1.3,0-2.3-0.4-3.2-1.1c-0.9-0.8-1.3-1.8-1.3-3.1s0.5-2.4,1.6-3.2s2.7-1.2,4.8-1.2h3.4v-0.2   c0-1.2-0.3-2.1-0.9-2.7c-0.6-0.5-1.7-0.8-3.1-0.8s-2.9,0.3-4.2,1H256V24.7z M264.4,34.2v-2.4h-3.1c-2.8,0-4.2,0.7-4.2,2.2   c0,1.5,1,2.2,3,2.2c0.8,0,1.6-0.2,2.4-0.6C263.3,35.3,263.9,34.8,264.4,34.2z"
   id="path1633"
   style="fill:#000000" />
	<path
   class="st1"
   d="M274.1,18.2v2.7h-2.7v-2.7H274.1z M271.4,38.2V24h2.5v14.3H271.4z"
   id="path1635"
   style="fill:#000000" />
	<path
   class="st1"
   d="M289.5,24h2.2v13.7c0,2.4-0.6,4.2-1.7,5.4c-1.1,1.3-2.8,1.9-4.9,1.9s-4.1-0.5-5.9-1.4V41h0.1   c1.6,1,3.4,1.5,5.6,1.5c2.9,0,4.3-1.5,4.3-4.6v-1.8h-0.1c-1.3,1.4-2.8,2.1-4.6,2.1c-1.8,0-3.4-0.6-4.8-1.9   c-1.4-1.3-2.1-3.1-2.1-5.4s0.7-4.1,2.1-5.4c1.4-1.3,3-1.9,4.8-1.9c1.8,0,3.3,0.7,4.6,2.1h0.1L289.5,24z M289.2,33.8v-5.8   c-1.3-1.4-2.7-2.1-4.2-2.1s-2.6,0.4-3.5,1.3c-0.9,0.8-1.3,2.1-1.3,3.7c0,1.6,0.4,2.8,1.3,3.7c0.9,0.8,2.1,1.3,3.5,1.3   S287.8,35.2,289.2,33.8z"
   id="path1637"
   style="fill:#000000" />
	<path
   class="st1"
   d="M303.9,23.7c1.5,0,2.8,0.5,3.7,1.6c0.9,1,1.3,2.4,1.3,3.9v9.1h-2.5v-8.8c0-2.3-1-3.4-3.1-3.4   c-1.6,0-3.2,0.9-4.6,2.7v9.5h-2.5V24h2.2l0.3,1.8v0.4h0.1C300.3,24.5,302,23.7,303.9,23.7z"
   id="path1639"
   style="fill:#000000" />
</g>
</svg>
