<?xml version="1.0" encoding="utf-8"?>
<!-- Generator: Adobe Illustrator 22.1.0, SVG Export Plug-In . SVG Version: 6.00 Build 0)  -->
<svg version="1.1"
	 id="svg413" inkscape:export-filename="/home/user/Desktop/Steer Campaign Branding/logo-color.png" inkscape:export-xdpi="96" inkscape:export-ydpi="96" inkscape:version="1.1 (1:1.1+202105261517+ce6663b3b7)" sodipodi:docname="logo-color.svg" xmlns:inkscape="http://www.inkscape.org/namespaces/inkscape" xmlns:sodipodi="http://sodipodi.sourceforge.net/DTD/sodipodi-0.dtd" xmlns:svg="http://www.w3.org/2000/svg"
	 xmlns="http://www.w3.org/2000/svg" xmlns:xlink="http://www.w3.org/1999/xlink" x="0px" y="0px" viewBox="0 0 1200 728"
	 style="enable-background:new 0 0 1200 728;" xml:space="preserve">
<style type="text/css">
	.st0{enable-background:new    ;}
	.st1{fill:#4170BD;}
</style>
<sodipodi:namedview  bordercolor="#666666" borderopacity="1.0" id="namedview415" inkscape:current-layer="layer2" inkscape:cx="635" inkscape:cy="271" inkscape:document-units="px" inkscape:pagecheckerboard="0" inkscape:pageopacity="1" inkscape:pageshadow="2" inkscape:window-height="836" inkscape:window-maximized="1" inkscape:window-width="1528" inkscape:window-x="72" inkscape:window-y="27" inkscape:zoom="0.5" pagecolor="#f3f6fe" showgrid="false" units="px" width="350px">
	</sodipodi:namedview>
<g id="layer1" inkscape:groupmode="layer" inkscape:label="Background">
</g>
<g id="layer2" inkscape:groupmode="layer" inkscape:label="Slogan">
	<g class="st0">
		<path class="st1" d="M629.1,358.5h5.7v27.9h-3.6v-24.1H631l-9.8,24.1h-3.8l-9.9-24.1h0v24.1h-3.6v-27.9h5.7l9.7,23.9h0.1
			L629.1,358.5z"/>
		<path class="st1" d="M642.2,367.2c2.3-1,4.8-1.5,7.5-1.5c2.7,0,4.7,0.8,6.1,2.3s2.1,3.4,2.1,5.6v12.9h-3.2l-0.4-2.6h-0.1
			c-1.9,2-4.4,3-7.4,3c-1.8,0-3.4-0.5-4.6-1.6c-1.3-1.1-1.9-2.6-1.9-4.5s0.8-3.4,2.3-4.6s3.8-1.8,6.9-1.8h4.8v-0.3
			c0-1.8-0.4-3-1.3-3.8c-0.9-0.8-2.4-1.2-4.5-1.2c-2.1,0-4.1,0.5-6,1.4h-0.2V367.2z M654.2,380.7v-3.4h-4.4c-4,0-6,1.1-6,3.2
			s1.4,3.2,4.2,3.2c1.2,0,2.3-0.3,3.4-0.9C652.5,382.2,653.5,381.5,654.2,380.7z"/>
		<path class="st1" d="M675.2,365.7h0.3v3.5h-0.3c-1.6,0-3,0.3-4.4,0.9s-2.4,1.5-3.2,2.6v13.8H664v-20.4h3.2l0.4,2.6v0.6h0.1
			C669.6,366.9,672.1,365.7,675.2,365.7z"/>
		<path class="st1" d="M688.7,374.3l9.2,12.2h-4.5l-7.2-9.6h-0.1l-3,3v6.7h-3.6v-29.2h3.6v17.9h0.1l8.8-9.1h4.9L688.7,374.3z"/>
		<path class="st1" d="M719.2,376.3v1.3h-15.4c0.2,1.9,0.9,3.3,2.1,4.4c1.2,1,3,1.6,5.3,1.6c2.4,0,4.6-0.7,6.6-2h0.2v3.5
			c-2.2,1.3-4.9,1.9-7.9,1.9c-3,0-5.5-0.9-7.3-2.8c-1.8-1.9-2.7-4.4-2.7-7.5s0.8-5.8,2.4-7.8c1.6-2.1,4-3.1,7.1-3.1
			c3.1,0,5.5,1,7.1,3.1C718.4,370.8,719.2,373.3,719.2,376.3z M703.8,374.6h11.8c-0.1-1.9-0.8-3.4-1.9-4.4c-1.2-1-2.5-1.5-4-1.5
			s-2.8,0.5-4,1.5C704.5,371.2,703.9,372.7,703.8,374.6z"/>
		<path class="st1" d="M734.9,369.2h-5.8v12.1c0,1.1,0.3,1.8,0.9,2.1c0.5,0.2,1.2,0.3,2,0.3s1.7-0.2,2.6-0.6h0.3v3
			c-1.1,0.6-2.3,0.9-3.6,0.9c-3.9,0-5.8-1.8-5.8-5.3v-12.4h-3.8v-0.2l7.4-7.3v4.4h5.8V369.2z"/>
		<path class="st1" d="M743.4,357.8v3.9h-3.9v-3.9H743.4z M739.6,386.5v-20.4h3.6v20.4H739.6z"/>
		<path class="st1" d="M760.8,365.7c2.2,0,4,0.7,5.2,2.2c1.3,1.5,1.9,3.4,1.9,5.6v13h-3.6v-12.6c0-3.3-1.5-4.9-4.4-4.9
			c-2.3,0-4.5,1.3-6.6,3.8v13.6h-3.6v-20.4h3.2l0.4,2.6v0.6h0.1C755.6,366.9,758.1,365.7,760.8,365.7z"/>
		<path class="st1" d="M789.8,366.1h3.2v19.5c0,3.4-0.8,5.9-2.4,7.8c-1.6,1.8-4,2.7-7.1,2.7s-5.9-0.7-8.4-2v-3.6h0.2
			c2.3,1.5,4.9,2.2,8,2.2c4.1,0,6.1-2.2,6.1-6.5v-2.6h-0.1c-1.8,2-4,3-6.6,3c-2.6,0-4.8-0.9-6.8-2.7c-2-1.8-3-4.4-3-7.7
			c0-3.3,1-5.8,3-7.7c2-1.8,4.3-2.7,6.8-2.7c2.6,0,4.8,1,6.6,3h0.1L789.8,366.1z M789.4,380.2v-8.2c-1.9-2-3.9-3-6-3s-3.7,0.6-5,1.8
			c-1.3,1.2-1.9,3-1.9,5.3s0.6,4,1.9,5.3c1.3,1.2,2.9,1.8,5,1.8S787.5,382.2,789.4,380.2z"/>
		<path class="st1" d="M830.3,386.5l-3-7.2h-13.6l-3,7.2h-4l11.8-27.9h3.8l11.8,27.9H830.3z M815.2,375.8v0.2h10.7v-0.2l-5.3-12.8
			h-0.1L815.2,375.8z"/>
		<path class="st1" d="M844.6,386.9c-2.2,0-4-0.7-5.2-2.2c-1.3-1.5-1.9-3.4-1.9-5.6v-13h3.6v12.6c0,3.3,1.5,4.9,4.4,4.9
			c2.3,0,4.5-1.3,6.6-3.8v-13.6h3.6v20.4h-3.2l-0.4-2.6v-0.6H852C849.8,385.7,847.4,386.9,844.6,386.9z"/>
		<path class="st1" d="M872.8,369.2H867v12.1c0,1.1,0.3,1.8,0.9,2.1c0.5,0.2,1.2,0.3,2,0.3s1.7-0.2,2.6-0.6h0.3v3
			c-1.1,0.6-2.3,0.9-3.6,0.9c-3.9,0-5.8-1.8-5.8-5.3v-12.4h-3.8v-0.2l7.4-7.3v4.4h5.8V369.2z"/>
		<path class="st1" d="M876.2,376.3c0-3.2,0.9-5.7,2.8-7.7c1.9-1.9,4.3-2.9,7.4-2.9c3.1,0,5.6,1,7.4,2.9c1.9,1.9,2.8,4.5,2.8,7.7
			c0,3.2-0.9,5.7-2.8,7.7c-1.9,1.9-4.4,2.9-7.4,2.9c-3.1,0-5.6-1-7.4-2.9C877.1,382,876.2,379.4,876.2,376.3z M881.8,381.7
			c1.3,1.2,2.9,1.8,4.6,1.8s3.3-0.6,4.6-1.8c1.3-1.2,2-3,2-5.5s-0.7-4.3-2-5.5c-1.3-1.2-2.9-1.8-4.6-1.8s-3.3,0.6-4.6,1.8
			s-2,3-2,5.5S880.5,380.5,881.8,381.7z"/>
		<path class="st1" d="M925.6,365.7c2.2,0,3.8,0.8,5,2.3s1.7,3.3,1.7,5.4v13.1h-3.6v-12.4c0-1.7-0.3-3-0.9-3.8s-1.7-1.2-3.1-1.2
			c-2.3,0-4.2,1.3-5.8,3.8v13.6h-3.6v-12.4c0-1.7-0.3-3-0.9-3.8s-1.7-1.2-3.2-1.2c-2.3,0-4.2,1.3-5.8,3.8v13.6h-3.6v-20.4h3.2
			l0.4,2.6v0.6h0.1c1.7-2.4,3.9-3.6,6.7-3.6c1.5,0,2.8,0.4,3.8,1.2s1.8,1.7,2.3,2.9h0.1C920,367,922.4,365.7,925.6,365.7z"/>
		<path class="st1" d="M938.8,367.2c2.3-1,4.8-1.5,7.5-1.5c2.7,0,4.7,0.8,6.1,2.3c1.4,1.5,2.1,3.4,2.1,5.6v12.9h-3.2l-0.4-2.6h-0.1
			c-1.9,2-4.4,3-7.4,3c-1.8,0-3.4-0.5-4.6-1.6c-1.3-1.1-1.9-2.6-1.9-4.5s0.8-3.4,2.3-4.6c1.6-1.2,3.8-1.8,6.9-1.8h4.8v-0.3
			c0-1.8-0.4-3-1.3-3.8s-2.4-1.2-4.5-1.2s-4.1,0.5-6,1.4h-0.2V367.2z M950.9,380.7v-3.4h-4.4c-4,0-6,1.1-6,3.2s1.4,3.2,4.2,3.2
			c1.2,0,2.3-0.3,3.4-0.9C949.2,382.2,950.1,381.5,950.9,380.7z"/>
		<path class="st1" d="M971.4,369.2h-5.8v12.1c0,1.1,0.3,1.8,0.9,2.1c0.5,0.2,1.2,0.3,2,0.3s1.7-0.2,2.6-0.6h0.3v3
			c-1.1,0.6-2.3,0.9-3.6,0.9c-3.9,0-5.8-1.8-5.8-5.3v-12.4h-3.8v-0.2l7.4-7.3v4.4h5.8V369.2z"/>
		<path class="st1" d="M980,357.8v3.9h-3.9v-3.9H980z M976.2,386.5v-20.4h3.6v20.4H976.2z"/>
		<path class="st1" d="M985.1,376.3c0-3.2,0.9-5.7,2.8-7.7c1.9-1.9,4.3-2.9,7.4-2.9c3.1,0,5.6,1,7.4,2.9c1.9,1.9,2.8,4.5,2.8,7.7
			c0,3.2-0.9,5.7-2.8,7.7c-1.9,1.9-4.4,2.9-7.4,2.9c-3.1,0-5.6-1-7.4-2.9C986,382,985.1,379.4,985.1,376.3z M990.7,381.7
			c1.3,1.2,2.9,1.8,4.6,1.8c1.8,0,3.3-0.6,4.6-1.8c1.3-1.2,2-3,2-5.5s-0.7-4.3-2-5.5s-2.9-1.8-4.6-1.8c-1.8,0-3.3,0.6-4.6,1.8
			c-1.3,1.2-2,3-2,5.5S989.4,380.5,990.7,381.7z"/>
		<path class="st1" d="M1021.7,365.7c2.2,0,4,0.7,5.2,2.2s1.9,3.4,1.9,5.6v13h-3.6v-12.6c0-3.3-1.5-4.9-4.4-4.9
			c-2.3,0-4.5,1.3-6.6,3.8v13.6h-3.6v-20.4h3.2l0.4,2.6v0.6h0.1C1016.5,366.9,1019,365.7,1021.7,365.7z"/>
	</g>
</g>
<g id="layer4" inkscape:groupmode="layer" inkscape:label="Icon">
	<g id="g682" transform="matrix(0.48429881,0,0,0.48429881,-13.113813,23.66351)">
		<path id="path674" class="st1" d="M400.2,582.8c33.4,0,60.5-27.1,60.5-60.5s-27.1-60.5-60.5-60.5s-60.5,27.1-60.5,60.5
			S366.8,582.8,400.2,582.8z M400.2,492.1c16.7,0,30.2,13.6,30.2,30.2c0,16.7-13.6,30.2-30.2,30.2s-30.2-13.6-30.2-30.2
			C369.9,505.7,383.5,492.1,400.2,492.1z"/>
		<path id="path676" class="st1" d="M468.2,395.9c9.5,0,17.1-7.7,17.1-17.1c0-9.5-7.7-17.1-17.1-17.1c-9.5,0-17.1,7.7-17.1,17.1
			C451.1,388.2,458.8,395.9,468.2,395.9z"/>
		<path id="path678" class="st1" d="M196.1,588.4c-9.5,0-17.1,7.7-17.1,17.1c0,9.5,7.7,17.1,17.1,17.1s17.1-7.7,17.1-17.1
			C213.2,596,205.5,588.4,196.1,588.4z"/>
		<path id="path680" class="st1" d="M989.8,340.9H790.5c-98.5,0-178.7,80.2-178.7,178.7v184.1H427.7c-98.5,0-178.7,80.2-178.7,178.7
			v199.3c0,8.4,6.8,15.1,15.1,15.1h199.3c98.5,0,178.7-80.2,178.7-178.7V734h184.1c98.5,0,178.7-80.2,178.7-178.7V356.1
			C1004.9,347.7,998.1,340.9,989.8,340.9L989.8,340.9z M611.8,918.1c0,81.9-66.6,148.5-148.5,148.5H279.2V882.5
			c0-81.9,66.6-148.5,148.5-148.5h184.1V918.1z M974.7,555.3c0,81.9-66.6,148.5-148.5,148.5H642.1V519.6
			c0-81.9,66.6-148.5,148.5-148.5h184.1L974.7,555.3z"/>
	</g>
</g>
<g class="st0">
	<path class="st1" d="M499.3,284.5c0,2.1,0.9,3.9,2.7,5.3c1.8,1.4,4,2.5,6.6,3.2c2.6,0.8,5.4,1.6,8.6,2.5c3.1,0.9,6,1.8,8.7,2.6
		c2.7,0.8,4.9,2.4,6.6,4.8c1.7,2.4,2.6,5.4,2.6,9c0,4.8-2,8.8-5.9,11.8c-4,3.1-9.5,4.6-16.6,4.6c-7.1,0-13.8-1.5-20.2-4.6v-7.5h0.4
		c5.8,3.3,12.5,4.9,20,4.9c9.8,0,14.8-3.3,14.8-9.8c0-3.2-2.4-5.5-7.2-7c-2-0.6-4.3-1.3-6.9-2c-2.5-0.7-5.1-1.5-7.6-2.3
		s-4.9-1.7-7-2.9c-2.1-1.2-3.8-2.8-5.1-4.8c-1.3-2.1-2-4.5-2-7.3c0-4.9,1.9-9,5.8-12.3c3.8-3.3,9-5,15.6-5c6.5,0,12.5,1,17.7,3v7.2
		h-0.6c-5.3-2.1-10.4-3.2-15.2-3.2c-4.9,0-8.7,0.9-11.5,2.6C500.8,279.1,499.3,281.5,499.3,284.5z"/>
	<path class="st1" d="M568.1,291.1h-12.2v25.5c0,2.4,0.6,3.8,1.9,4.4c1.1,0.5,2.4,0.7,4.1,0.7c1.7,0,3.5-0.4,5.6-1.3h0.6v6.2
		c-2.4,1.2-4.9,1.9-7.6,1.9c-8.2,0-12.3-3.7-12.3-11.1v-26.1h-8v-0.5l15.7-15.3v9.3h12.2V291.1z"/>
	<path class="st1" d="M615.6,306v2.7H583c0.4,3.9,1.9,7,4.4,9.2c2.5,2.2,6.2,3.3,11.3,3.3c5,0,9.7-1.4,13.9-4.2h0.4v7.4
		c-4.7,2.6-10.3,4-16.6,4c-6.4,0-11.5-2-15.3-5.9c-3.8-3.9-5.8-9.2-5.8-15.8c0-6.7,1.7-12.2,5.1-16.5c3.4-4.3,8.4-6.5,15-6.5
		c6.6,0,11.6,2.2,15,6.5C613.9,294.5,615.6,299.8,615.6,306z M583,302.4h24.9c-0.2-4-1.6-7.1-4.1-9.2c-2.5-2.1-5.3-3.1-8.4-3.1
		c-3.1,0-5.9,1-8.3,3.1C584.6,295.3,583.3,298.4,583,302.4z"/>
	<path class="st1" d="M663.6,306v2.7h-32.5c0.4,3.9,1.9,7,4.4,9.2c2.5,2.2,6.2,3.3,11.3,3.3s9.7-1.4,13.9-4.2h0.4v7.4
		c-4.7,2.6-10.3,4-16.6,4c-6.4,0-11.5-2-15.3-5.9c-3.8-3.9-5.8-9.2-5.8-15.8c0-6.7,1.7-12.2,5.1-16.5c3.4-4.3,8.4-6.5,15-6.5
		c6.6,0,11.6,2.2,15,6.5C661.9,294.5,663.6,299.8,663.6,306z M631.1,302.4H656c-0.2-4-1.6-7.1-4.1-9.2c-2.5-2.1-5.3-3.1-8.4-3.1
		c-3.1,0-5.9,1-8.3,3.1C632.7,295.3,631.3,298.4,631.1,302.4z"/>
	<path class="st1" d="M697.6,283.7h0.7v7.3h-0.7c-3.3,0-6.4,0.6-9.3,1.9c-2.9,1.3-5.1,3.1-6.7,5.4v29.2h-7.7v-43h6.7l0.9,5.4v1.3
		h0.2C685.8,286.2,691.1,283.7,697.6,283.7z"/>
	<path class="st1" d="M775.6,280.9c-5.8-3.8-12.2-5.7-19.1-5.7c-7,0-12.4,2.1-16.4,6.4c-3.9,4.3-5.9,9.8-5.9,16.5s2,12.3,5.9,16.5
		c3.9,4.3,9.4,6.4,16.4,6.4c7,0,13.3-1.9,19.1-5.7h0.4v7.6c-6.1,3.7-12.7,5.5-20,5.5c-8.6,0-15.7-2.7-21.2-8.2
		c-5.5-5.5-8.3-12.8-8.3-22c0-9.2,2.8-16.6,8.3-22c5.5-5.5,12.6-8.2,21.2-8.2c7.2,0,13.9,1.8,20,5.5v7.6H775.6z"/>
	<path class="st1" d="M788,286.9c4.9-2.1,10.1-3.2,15.7-3.2c5.6,0,9.9,1.6,12.9,4.9c3,3.3,4.5,7.2,4.5,11.7v27.2h-6.7l-0.9-5.4h-0.3
		c-4,4.2-9.2,6.2-15.6,6.2c-3.8,0-7.1-1.2-9.7-3.5c-2.7-2.3-4-5.5-4-9.4c0-4,1.6-7.2,4.9-9.7c3.3-2.5,8.1-3.7,14.5-3.7h10.2v-0.7
		c0-3.7-0.9-6.4-2.7-8c-1.8-1.6-5-2.4-9.5-2.4c-4.5,0-8.7,1-12.6,2.9H788V286.9z M813.4,315.3v-7.1h-9.2c-8.5,0-12.7,2.2-12.7,6.7
		s3,6.7,8.9,6.7c2.5,0,4.9-0.6,7.2-1.8C809.9,318.6,811.8,317.1,813.4,315.3z"/>
	<path class="st1" d="M884.5,283.7c4.6,0,8.1,1.6,10.5,4.9c2.4,3.3,3.6,7,3.6,11.3v27.6h-7.7v-26.1c0-3.7-0.7-6.3-2-8
		c-1.3-1.7-3.5-2.6-6.6-2.6c-4.8,0-8.9,2.7-12.1,8.1v28.7h-7.7v-26.1c0-3.7-0.6-6.3-1.9-8c-1.3-1.7-3.5-2.6-6.7-2.6
		c-4.8,0-8.9,2.7-12.1,8.1v28.7h-7.7v-43h6.7l0.9,5.4v1.3h0.2c3.6-5,8.3-7.5,14.2-7.5c3.1,0,5.8,0.8,8,2.4c2.2,1.6,3.8,3.7,4.8,6.1
		h0.3C872.5,286.5,877.7,283.7,884.5,283.7z"/>
	<path class="st1" d="M947.9,322.3c-4.1,4-8.8,6.1-14.3,6.1c-5.5,0-10.2-2.1-14.2-6.2h-0.3v24.8h-7.7v-62.4h6.7l0.9,5.4h0.3
		c4-4.2,8.7-6.2,14.2-6.2c5.5,0,10.2,2,14.3,6.1c4.1,4,6.1,9.5,6.1,16.3C954,312.8,952,318.2,947.9,322.3z M932.5,290.8
		c-5.1,0-9.5,2.1-13.3,6.3v17.7c3.8,4.2,8.3,6.3,13.3,6.3c4.2,0,7.5-1.3,10-4c2.5-2.6,3.8-6.4,3.8-11.2c0-4.8-1.3-8.6-3.8-11.2
		C940,292.1,936.7,290.8,932.5,290.8z"/>
	<path class="st1" d="M965.5,286.9c4.9-2.1,10.1-3.2,15.7-3.2c5.6,0,9.9,1.6,12.9,4.9c3,3.3,4.5,7.2,4.5,11.7v27.2h-6.7l-0.9-5.4
		h-0.3c-4,4.2-9.2,6.2-15.6,6.2c-3.8,0-7.1-1.2-9.7-3.5c-2.7-2.3-4-5.5-4-9.4c0-4,1.6-7.2,4.9-9.7c3.3-2.5,8.1-3.7,14.5-3.7h10.2
		v-0.7c0-3.7-0.9-6.4-2.7-8c-1.8-1.6-5-2.4-9.5-2.4c-4.5,0-8.7,1-12.6,2.9h-0.5V286.9z M990.8,315.3v-7.1h-9.2
		c-8.5,0-12.7,2.2-12.7,6.7s3,6.7,8.9,6.7c2.5,0,4.9-0.6,7.2-1.8C987.3,318.6,989.3,317.1,990.8,315.3z"/>
	<path class="st1" d="M1019.8,267.1v8.3h-8.3v-8.3H1019.8z M1011.8,327.5v-43h7.7v43H1011.8z"/>
	<path class="st1" d="M1066.3,284.5h6.7v41.1c0,7.1-1.7,12.5-5.1,16.4c-3.4,3.8-8.4,5.7-14.9,5.7s-12.4-1.4-17.7-4.3v-7.6h0.4
		c4.8,3.1,10.4,4.6,16.8,4.6c8.6,0,12.9-4.6,12.9-13.7v-5.5h-0.3c-3.9,4.2-8.5,6.2-13.9,6.2s-10.2-1.9-14.4-5.8
		c-4.2-3.8-6.3-9.2-6.3-16.1s2.1-12.3,6.3-16.1c4.2-3.8,9-5.8,14.4-5.8s10,2.1,13.9,6.2h0.3L1066.3,284.5z M1065.3,314.3v-17.4
		c-4-4.2-8.2-6.2-12.6-6.2c-4.4,0-7.9,1.3-10.5,3.8c-2.7,2.6-4,6.3-4,11.1c0,4.8,1.3,8.5,4,11.1c2.7,2.6,6.2,3.8,10.5,3.8
		C1057.1,320.5,1061.3,318.4,1065.3,314.3z"/>
	<path class="st1" d="M1109.7,283.7c4.7,0,8.3,1.6,11,4.7c2.7,3.1,4,7.1,4,11.8v27.3h-7.7V301c0-6.9-3.1-10.3-9.3-10.3
		c-4.9,0-9.5,2.7-13.8,8.1v28.7h-7.7v-43h6.7l0.9,5.4v1.3h0.2C1098.7,286.2,1103.9,283.7,1109.7,283.7z"/>
</g>
</svg>
